HIERARCHY
ROOT Hips
{
	OFFSET 0.00000 0.00000 0.00000
	CHANNELS 6 Xposition Yposition Zposition Yrotation Zrotation Xrotation 
	JOINT Lumbar
	{
		OFFSET 0 0 0
		CHANNELS 3 Zrotation Xrotation Yrotation
		JOINT Neck
		{
			OFFSET 0.00 0.2701 0.00
			CHANNELS 3 Zrotation Xrotation Yrotation
			End Site
			{
				OFFSET 0.00 0.1379 0.00
			}
		}
		JOINT RightShoulder
		{
			OFFSET 0.0119 0.2289 0.1181
			CHANNELS 3 Zrotation Xrotation Yrotation
			JOINT RightElbow
			{
				OFFSET 0.00 -0.1475 0.00
				CHANNELS 2 Zrotation Yrotation
				JOINT RightWrist
				{
					OFFSET 0.00 -0.1605 0.00
					CHANNELS 2 Zrotation Xrotation
					End Site
					{
						OFFSET 0.0040 -0.1068 0.0006
					}
				}
			}
		}
		JOINT LeftShoulder
		{
			OFFSET 0.0119 0.2289 -0.1181
			CHANNELS 3 Zrotation Xrotation Yrotation
			JOINT LeftElbow
			{
				OFFSET 0.00 -0.1475 0.00
				CHANNELS 2 Zrotation Yrotation
				JOINT LeftWrist
				{
					OFFSET 0.00 -0.1605 0.00
					CHANNELS 2 Zrotation Xrotation
					End Site
					{
						OFFSET 0.0040 -0.1068 -0.0006
					}
				}
			}
		}
	}
	JOINT RightHip
	{
		OFFSET 0.0316 -0.0424 0.0458
		CHANNELS 3 Zrotation Xrotation Yrotation
		JOINT RightKnee
		{
			OFFSET 0.00 -0.2438 0.00
			CHANNELS 1 Zrotation
			JOINT RightAnkle
			{
				OFFSET 0.00 -0.2449 0.00
				CHANNELS 3 Zrotation Xrotation Yrotation
				End Site
				{
					OFFSET 0.1237 -0.0542 0.0051
				}
			}
		}
	}
	JOINT LeftHip
	{
		OFFSET 0.0316 -0.0424 -0.0458
		CHANNELS 3 Zrotation Xrotation Yrotation
		JOINT LeftKnee
		{
			OFFSET 0.00 -0.2438 0.00
			CHANNELS 1 Zrotation
			JOINT LeftAnkle
			{
				OFFSET 0.00 -0.2449 0.00
				CHANNELS 3 Zrotation Xrotation Yrotation
				End Site
				{
					OFFSET 0.1237 -0.0542 -0.0051
				}
			}
		}
	}
}
MOTION
Frames: 28
Frame Time: 0.02
0.21157 0.58104 0.02984 187.39456 0 -4.0702 -0.15597 1.72242 -3.72497 -16.31301 2.7586 -0.47471 -3.04863 -21.49148 -40.27804 105.35192 154.56164 27.52048 14.31535 1.54425 12.83884 40.73981 52.56965 -40.05922 -26.70194 -4.31114 -9.56944 5.76761 3.65899 -7.52103 4.4302 -4.31171 -7.92805 -4.09435 -2.08824 1.86987 -2.65962 4.78204 3.53195 5.00395
0.21215 0.58098 0.03026 187.30029 0 -4.10716 -0.26561 1.61355 -3.89252 -16.73539 2.90331 -0.33022 -2.60969 -21.60934 -40.08619 105.53347 154.68802 27.58914 14.36874 2.04499 12.57684 40.69939 52.33738 -40.39508 -26.40132 -4.29962 -9.19366 5.77508 3.71172 -8.12688 4.62765 -4.39908 -7.93706 -4.12619 -2.10215 1.23689 -2.51075 4.66395 3.73414 5.64335
0.21275 0.5809 0.03066 187.20986 0 -4.12511 -0.38378 1.48257 -4.10284 -17.20842 3.07134 -0.18704 -2.12202 -21.77559 -39.87178 105.72014 154.91112 27.69432 14.46306 2.58533 12.28241 40.67977 52.07033 -40.7469 -26.04054 -4.30285 -8.77851 5.79192 4.07927 -8.80734 4.82813 -4.5439 -8.28971 -4.16814 -2.13391 0.40536 -2.33523 4.50804 4.00985 6.4589
0.21335 0.58083 0.03106 187.11507 0 -4.15276 -0.49993 1.36439 -4.28952 -17.64681 3.2257 -0.04755 -1.6698 -21.91702 -39.67338 105.90329 155.08453 27.78025 14.53632 3.09451 12.00905 40.64637 51.81767 -41.08129 -25.71812 -4.29907 -8.37543 5.80583 4.3007 -9.46369 5.02699 -4.66162 -8.47493 -4.20247 -2.15535 -0.28524 -2.17736 4.37618 4.23545 7.14487
0.21394 0.58074 0.03148 187.03006 0 -4.17563 -0.60921 1.23412 -4.49333 -18.13352 3.3926 0.11057 -1.16214 -22.0697 -39.44924 106.09166 155.28074 27.87643 14.61936 3.65909 11.70894 40.62761 51.57118 -41.45951 -25.34901 -4.29628 -7.9953 5.81247 4.51288 -10.08076 5.23056 -4.7812 -8.68446 -4.24905 -2.1866 -1.19411 -1.99649 4.21508 4.53157 8.04482
0.21456 0.58069 0.03187 186.92662 0 -4.20404 -0.73412 1.12397 -4.67205 -18.53246 3.53895 0.22934 -0.75783 -22.21041 -39.27432 106.27034 155.45292 27.96051 14.69196 4.11847 11.45714 40.58514 51.30449 -41.75025 -25.06272 -4.29501 -7.55863 5.83741 4.82686 -10.79679 5.42331 -4.91113 -8.93376 -4.273 -2.2015 -1.69841 -1.85657 4.10533 4.69942 8.54338
0.21525 0.58073 0.0322 186.76479 0 -4.25242 -0.9041 1.07462 -4.7685 -18.66971 3.62448 0.24019 -0.65433 -22.30968 -39.23609 106.42076 155.53579 27.99962 14.7261 4.26859 11.34333 40.4664 50.97839 -41.79112 -25.02234 -4.29472 -6.97606 5.90685 5.35379 -11.76442 5.58923 -5.0596 -9.21049 -4.2284 -2.16642 -0.98055 -1.84238 4.15498 4.48047 7.83622
0.21597 0.5808 0.03251 186.58577 0 -4.30699 -1.08863 1.04634 -4.83877 -18.71813 3.68833 0.21134 -0.65585 -22.39465 -39.24931 106.56141 155.59122 28.02584 14.74833 4.31305 11.27988 40.32451 50.63529 -41.74407 -25.06689 -4.29544 -6.3384 5.99518 5.97369 -12.82882 5.74294 -5.21614 -9.51839 -4.16133 -2.11432 0.14226 -1.86931 4.25627 4.1324 6.72749
0.21668 0.58086 0.03282 186.4188 0 -4.35884 -1.26388 1.00863 -4.9227 -18.81184 3.76111 0.20034 -0.60686 -22.48413 -39.2421 106.7065 155.65895 28.05984 14.77583 4.41171 11.1955 40.19756 50.30768 -41.73991 -25.07108 -4.29551 -5.72533 6.07763 6.54877 -13.85152 5.89934 -5.36678 -9.8143 -4.10697 -2.07015 1.04381 -1.87331 4.32849 3.8529 5.83711
0.21741 0.58092 0.03316 186.23334 0 -4.40993 -1.45093 0.96966 -5.00056 -18.88677 3.83855 0.19015 -0.56775 -22.58398 -39.22118 106.85119 155.73073 28.08717 14.80533 4.48567 11.10162 40.05301 49.94587 -41.72376 -25.08093 -4.29689 -5.1113 6.14935 7.14621 -14.86954 6.06813 -5.52887 -10.11269 -4.04257 -2.02557 2.09478 -1.89388 4.42269 3.5344 4.80276
0.21808 0.58099 0.03344 186.08319 0 -4.46396 -1.61645 0.93844 -5.0844 -18.97879 3.9009 0.16881 -0.53385 -22.65781 -39.2419 106.99506 155.78633 28.1246 14.82734 4.58547 11.04004 39.93885 49.65197 -41.71175 -25.09951 -4.29558 -4.48851 6.24731 7.71395 -15.91643 6.20799 -5.6682 -10.40881 -3.99343 -1.97784 2.93412 -1.89057 4.48426 3.26529 3.96923
0.21859 0.5811 0.03359 186.02681 0 -4.52783 -1.7213 0.92501 -5.1899 -19.14153 3.92618 0.12693 -0.48707 -22.66672 -39.36009 107.13287 155.8034 28.19528 14.83124 4.78191 11.05427 39.91872 49.54756 -41.73025 -25.12564 -4.28673 -3.84049 6.41704 8.18618 -17.04259 6.27206 -5.74337 -10.69109 -3.99348 -1.92314 3.08446 -1.80687 4.44016 3.1656 3.79911
0.21904 0.58121 0.03369 186.00798 0 -4.59396 -1.80344 0.91851 -5.30228 -19.32378 3.93705 0.07516 -0.44249 -22.64914 -39.51923 107.27135 155.80477 28.27604 14.82789 5.00768 11.09953 39.92908 49.51261 -41.75622 -25.1572 -4.27506 -3.1888 6.61167 8.62174 -18.1891 6.30713 -5.79491 -10.96817 -4.00937 -1.86618 3.00989 -1.69866 4.36217 3.11946 3.8421
0.21951 0.58132 0.03381 185.9772 0 -4.65695 -1.89448 0.90782 -5.4122 -19.4959 3.95489 0.02753 -0.39812 -22.64111 -39.66324 107.41357 155.81324 28.35049 14.82791 5.22047 11.13156 39.92244 49.44749 -41.78038 -25.18373 -4.2645 -2.54809 6.79233 9.06695 -19.31145 6.3548 -5.85664 -11.24618 -4.0169 -1.81183 3.04302 -1.60469 4.30181 3.04745 3.77954
0.22001 0.58145 0.03394 185.92443 0 -4.72891 -1.99228 0.90199 -5.51868 -19.67101 3.9702 -0.02019 -0.35207 -22.64277 -39.79523 107.53833 155.82098 28.43158 14.82727 5.42904 11.16206 39.92815 49.37599 -41.79517 -25.22372 -4.25463 -1.86475 6.98511 9.54661 -20.50275 6.40477 -5.92124 -11.53231 -4.0284 -1.75046 3.06712 -1.4991 4.23383 2.97732 3.73956
0.22042 0.58154 0.03403 185.92637 0 -4.78287 -2.07009 0.88773 -5.63396 -19.84477 3.98762 -0.06929 -0.30892 -22.61858 -39.96017 107.69978 155.82683 28.50166 14.82639 5.65357 11.20192 39.91581 49.33435 -41.83194 -25.23621 -4.24274 -1.27177 7.15801 9.94283 -21.5508 6.44289 -5.97388 -11.79887 -4.03586 -1.70311 3.0512 -1.4113 4.17299 2.91786 3.70867
0.22064 0.58154 0.03404 186.07203 0 -4.7847 -2.10079 0.84554 -5.7745 -20.01804 4.01483 -0.1217 -0.27095 -22.52616 -40.21544 107.96192 155.83163 28.53648 14.82685 5.9252 11.26447 39.84528 49.35961 -41.93228 -25.16816 -4.22498 -0.91506 7.2723 10.13178 -22.22467 6.45844 -6.00131 -12.02033 -4.02701 -1.69737 2.97938 -1.37885 4.14027 2.87362 3.65012
0.22078 0.5815 0.03402 186.27107 0 -4.76865 -2.11158 0.79503 -5.92319 -20.18811 4.04475 -0.17454 -0.23576 -22.40958 -40.50022 108.26102 155.83511 28.56017 14.82732 6.21028 11.33424 39.75586 49.41224 -42.05425 -25.07243 -4.20543 -0.65245 7.36513 10.23513 -22.74807 6.46261 -6.01711 -12.22056 -4.01389 -1.7055 2.87317 -1.36495 4.11569 2.83914 3.59558
0.22095 0.58149 0.03401 186.44474 0 -4.76203 -2.12979 0.75021 -6.06661 -20.355 4.07321 -0.22577 -0.20028 -22.30599 -40.76534 108.54363 155.83916 28.59088 14.82769 6.48329 11.39761 39.67572 49.45162 -42.16348 -24.9911 -4.18739 -0.3562 7.4662 10.36755 -23.32278 6.47001 -6.03684 -12.42539 -4.00373 -1.7058 2.78085 -1.34211 4.087 2.80155 3.54153
0.22114 0.58146 0.034 186.62495 0 -4.75008 -2.15419 0.69773 -6.2172 -20.54258 4.10192 -0.28354 -0.16077 -22.19197 -41.05918 108.82524 155.84288 28.61454 14.82822 6.78326 11.47548 39.59349 49.4973 -42.28445 -24.90236 -4.16649 -0.02084 7.57474 10.5392 -23.97106 6.48442 -6.06141 -12.65175 -3.9899 -1.7123 2.68796 -1.32032 4.05867 2.76008 3.48451
0.22126 0.58145 0.03398 186.80302 0 -4.74483 -2.16114 0.65894 -6.35427 -20.68544 4.13119 -0.3274 -0.13034 -22.09557 -41.2986 109.11732 155.84703 28.64901 14.8285 7.02883 11.52418 39.511 49.5349 -42.38696 -24.82236 -4.15096 0.21015 7.66205 10.61061 -24.42918 6.48211 -6.07353 -12.82784 -3.98239 -1.70938 2.59139 -1.30138 4.03224 2.72843 3.43236
0.22117 0.58152 0.03393 186.96804 0 -4.76342 -2.12571 0.6616 -6.4557 -20.71115 4.15916 -0.33477 -0.12345 -22.04265 -41.38938 109.43241 155.85386 28.72562 14.82817 7.13009 11.49277 39.4301 49.54779 -42.42477 -24.77362 -4.15242 0.18001 7.69782 10.41438 -24.40622 6.435 -6.05348 -12.87398 -3.99426 -1.6757 2.48988 -1.2831 4.0066 2.72039 3.38822
0.22101 0.58161 0.03386 187.12772 0 -4.78913 -2.07332 0.67795 -6.54247 -20.69091 4.18801 -0.32769 -0.12572 -22.01039 -41.42256 109.75603 155.86089 28.81165 14.82754 7.1744 11.43126 39.34998 49.55044 -42.4446 -24.73456 -4.15907 0.04726 7.71246 10.1225 -24.19554 6.3719 -6.02153 -12.86961 -4.01242 -1.63234 2.38754 -1.26763 3.98319 2.72182 3.3486
0.22088 0.58169 0.0338 187.28582 0 -4.81097 -2.02822 0.68696 -6.63359 -20.68789 4.21806 -0.32587 -0.12431 -21.9762 -41.47606 110.07382 155.86727 28.88709 14.82707 7.23848 11.38183 39.27077 49.55465 -42.4784 -24.69075 -4.16221 -0.04111 7.73552 9.88246 -24.06609 6.31718 -5.99555 -12.88596 -4.02703 -1.59426 2.28874 -1.25275 3.96053 2.71937 3.30881
0.22075 0.58178 0.03375 187.46289 0 -4.83503 -1.98423 0.70055 -6.73501 -20.69996 4.24173 -0.32963 -0.12095 -21.9101 -41.55518 110.40166 155.87643 28.98888 14.82669 7.3284 11.33912 39.18518 49.57302 -42.48928 -24.64732 -4.17007 -0.12307 7.76303 9.60449 -23.94901 6.25725 -5.96677 -12.91095 -4.04435 -1.55281 2.17517 -1.2307 3.93073 2.71555 3.26144
0.22059 0.58185 0.03368 187.59829 0 -4.85619 -1.93411 0.70779 -6.81105 -20.6701 4.2785 -0.31826 -0.12379 -21.91512 -41.56707 110.70947 155.87927 29.03806 14.82581 7.35136 11.27557 39.11379 49.55896 -42.54234 -24.60592 -4.16945 -0.24175 7.77631 9.3834 -23.76309 6.20464 -5.94118 -12.90627 -4.05764 -1.51607 2.09273 -1.22391 3.91621 2.71667 3.23073
0.22038 0.58188 0.03356 187.62109 0 -4.86954 -1.87184 0.6955 -6.82338 -20.53243 4.35454 -0.2692 -0.14177 -22.11635 -41.40539 110.96513 155.87 28.94088 14.82582 7.19801 11.15825 39.07731 49.45897 -42.72489 -24.56663 -4.14331 -0.43438 7.75718 9.34766 -23.43734 6.17527 -5.92696 -12.83153 -4.05759 -1.49334 2.09619 -1.25923 3.94344 2.7293 3.24555
0.22014 0.58188 0.03341 187.60168 0 -4.87949 -1.80398 0.67616 -6.81015 -20.35476 4.44312 -0.20536 -0.16575 -22.38756 -41.17832 111.1991 155.85351 28.79051 14.82498 6.98007 11.02161 39.05587 49.32642 -42.94882 -24.52937 -4.10865 -0.66036 7.72426 9.3719 -23.04875 6.15399 -5.91645 -12.72882 -4.0534 -1.47586 2.13122 -1.30956 3.98588 2.74649 3.27683
